# xmcd
#
# Track frame offsets:
#	151
#	27751
#	65282
#	83685
#	113519
#	138015
#	178356
#
# Disc length: 2634 seconds
#
# Revision: 1
# Processed by: cddbd v1.5.1PL0 Copyright (c) Steve Scherf et al.
# Submitted via: CDex 1.50Beta5
#
DISCID=4e0a4807
DTITLE=ベードーベン・リスト - クラシックピアノ名演集
DYEAR=1900
DGENRE=
TTITLE0=ウィルヘルム・ケンプ/ピアノ・ソナタ第4番変ホ長調第一楽章
TTITLE1=ウィルヘルム・ケンプ/ピアノ協奏曲第一番変ホ長調
TTITLE2=ウィルヘルム・ケンプ/第三楽章
TTITLE3=ウィルヘルム・ケンプ/第四楽章
TTITLE4=クラウディオ・アラウ/ピアノ協奏曲第一番変ホ長調第一楽章
TTITLE5=クラウディオ・アラウ/第二楽章
TTITLE6=クラウディオ・アラウ/第三楽章
EXTD=
EXTT0=
EXTT1=
EXTT2=
EXTT3=
EXTT4=
EXTT5=
EXTT6=
PLAYORDER=
